<?xml version="1.0" standalone="no"?>
<!DOCTYPE svg PUBLIC "-//W3C//DTD SVG 20010904//EN"
 "http://www.w3.org/TR/2001/REC-SVG-20010904/DTD/svg10.dtd">
<svg version="1.0" xmlns="http://www.w3.org/2000/svg"
 width="1920.000000pt" height="1920.000000pt" viewBox="0 0 1920.000000 1920.000000"
 preserveAspectRatio="xMidYMid meet">

<g transform="translate(0.000000,1920.000000) scale(0.100000,-0.100000)"
fill="#000000" stroke="none">
<path d="M9110 16099 c-110 -42 -447 -148 -490 -154 -14 -2 -25 -4 -25 -5 0
-1 -11 -4 -25 -6 -49 -9 -197 -57 -280 -91 -168 -69 -425 -211 -480 -264 -8
-8 -49 -41 -90 -73 -245 -190 -512 -472 -654 -690 -60 -93 -196 -335 -200
-358 -3 -15 -7 -24 -57 -143 -72 -173 -186 -585 -190 -689 -1 -17 -8 -80 -15
-141 -35 -266 -45 -459 -54 -1020 -11 -619 -6 -766 30 -906 38 -147 103 -259
202 -344 57 -48 203 -146 293 -196 l73 -40 7 -57 c15 -129 77 -435 109 -542
72 -242 96 -296 200 -450 92 -136 187 -231 366 -365 135 -102 260 -209 260
-225 0 -17 -199 -102 -270 -114 -14 -3 -25 -5 -25 -6 0 -1 -14 -3 -31 -5 -17
-3 -69 -13 -115 -24 -46 -11 -176 -36 -289 -56 -326 -58 -467 -85 -585 -112
-60 -13 -119 -26 -130 -27 -12 -1 -26 -6 -33 -10 -7 -4 -16 -5 -21 -1 -5 3
-12 1 -16 -5 -4 -6 -10 -8 -15 -5 -8 5 -196 -54 -325 -103 -112 -42 -345 -156
-438 -213 -280 -173 -505 -399 -679 -679 -72 -117 -177 -311 -183 -338 -2 -9
-16 -46 -31 -82 -49 -118 -112 -313 -138 -430 -33 -143 -65 -314 -68 -354 0
-17 -11 -103 -24 -191 -36 -251 -69 -521 -129 -1055 -30 -272 -62 -546 -70
-609 -8 -63 -15 -136 -15 -162 0 -26 -5 -51 -10 -54 -6 -4 -8 -11 -5 -16 4 -5
-3 -75 -14 -156 -42 -300 -53 -411 -54 -553 -1 -170 13 -255 59 -360 70 -160
172 -261 454 -451 l162 -109 4546 0 4545 0 46 27 c263 153 489 348 548 473
108 227 114 400 32 978 -11 79 -18 150 -15 158 3 7 1 16 -4 19 -4 3 -8 24 -9
48 0 23 -9 116 -20 207 -21 171 -43 379 -86 825 -40 410 -74 681 -115 907 -11
60 -19 112 -19 116 1 4 0 9 -1 12 -1 3 -3 22 -6 44 -6 65 -73 325 -116 451
-106 312 -171 455 -306 665 -170 264 -416 499 -733 697 -152 95 -538 268 -642
287 -12 3 -24 5 -27 6 -3 1 -9 3 -15 5 -5 1 -12 3 -15 4 -3 1 -14 4 -25 6 -11
3 -69 16 -130 30 -141 33 -375 75 -640 115 -115 18 -250 41 -300 52 -49 11
-101 21 -115 23 -14 2 -27 4 -30 5 -3 2 -8 2 -12 1 -27 -3 -230 81 -277 115
-6 5 107 109 249 228 183 153 309 274 366 351 25 33 52 68 59 77 18 21 87 158
81 158 -3 0 1 15 9 33 47 113 134 478 165 699 7 48 16 91 19 95 3 5 47 33 96
62 142 85 235 154 306 228 64 66 116 138 125 172 2 9 15 54 29 100 40 134 45
281 35 981 -10 620 -15 739 -46 980 -9 69 -18 142 -19 164 -21 236 -172 684
-318 941 -47 84 -123 204 -136 215 -3 3 -12 17 -19 31 -22 41 -234 284 -370
423 -131 133 -327 297 -442 371 -152 98 -555 265 -695 290 -16 2 -43 9 -60 14
-208 64 -370 117 -459 150 l-110 41 -380 -1 -381 -1 -105 -39z m657 -2733
c805 -348 907 -384 1273 -445 284 -48 383 -83 460 -163 45 -47 101 -155 119
-232 l12 -49 -43 -44 c-37 -38 -344 -255 -380 -268 -7 -3 -53 25 -103 63 -106
80 -221 141 -325 173 -63 20 -97 24 -210 24 -122 0 -143 -3 -215 -28 -95 -33
-184 -85 -279 -161 -42 -34 -84 -58 -105 -63 -20 -3 -83 0 -141 7 -201 24
-327 24 -445 0 -131 -28 -141 -25 -285 66 -127 81 -262 146 -350 169 -82 22
-215 22 -300 0 -94 -23 -231 -95 -334 -172 -49 -38 -95 -72 -102 -78 -16 -12
-308 182 -390 258 l-55 52 16 58 c8 31 27 81 41 110 78 155 182 215 459 267
465 86 505 98 985 298 472 196 534 221 542 222 4 0 74 -29 155 -64z m2303
-1296 l79 -32 22 -91 c12 -51 24 -138 27 -195 4 -95 2 -106 -22 -155 -45 -91
-123 -130 -360 -177 l-130 -25 -13 -50 c-22 -87 -71 -333 -108 -545 -60 -344
-101 -475 -198 -623 -97 -149 -270 -303 -552 -493 -556 -375 -870 -505 -1219
-505 -269 -1 -503 76 -831 271 -244 145 -676 442 -763 524 -214 203 -287 379
-387 936 -46 259 -92 469 -104 482 -4 5 -57 17 -119 28 -182 33 -265 63 -322
118 -34 33 -52 60 -60 92 -17 62 -7 204 21 317 l23 92 45 16 c65 23 167 30
231 16 113 -24 281 -131 416 -266 80 -79 103 -127 155 -317 16 -61 43 -144 60
-183 71 -170 245 -315 449 -371 96 -27 307 -25 415 4 108 29 269 111 337 172
105 93 139 172 204 465 21 94 40 173 43 177 6 7 379 14 385 7 2 -2 20 -81 40
-176 60 -280 93 -362 185 -452 202 -200 586 -272 861 -164 145 57 302 188 353
293 16 33 33 95 42 155 18 114 37 179 70 237 63 110 212 236 436 368 172 102
164 101 289 50z m-2801 -3298 c133 -35 140 -36 326 -36 183 -1 195 0 320 32
72 18 215 61 318 96 l189 62 -6 -28 c-21 -108 -99 -241 -201 -343 -161 -163
-367 -245 -615 -245 -302 0 -560 132 -715 366 -40 61 -88 167 -100 221 l-6 32
177 -60 c97 -33 238 -77 313 -97z m861 -907 c1597 -5 1856 -8 1925 -21 119
-23 115 -21 115 -61 0 -20 9 -66 19 -102 36 -124 55 -316 71 -731 18 -471 10
-1580 -15 -2155 -6 -128 -25 -418 -29 -422 -1 -1 -1140 -4 -2531 -7 -1392 -4
-2574 -9 -2628 -12 l-99 -5 7 1028 6 1028 -43 60 c-44 60 -44 60 -103 65 l-59
5 3 70 c1 38 4 72 6 75 1 3 5 43 9 90 4 47 9 116 13 154 l6 69 78 36 c43 19
81 41 83 48 3 7 10 93 16 191 21 355 28 420 48 464 34 77 102 117 237 137 33
5 276 8 540 5 264 -2 1310 -6 2325 -9z m2315 -3987 c-6 -59 -25 -338 -25 -362
0 -15 -269 -16 -2810 -16 -1545 0 -2810 1 -2810 3 0 1 -9 94 -20 207 -11 113
-20 208 -20 213 0 4 1280 7 2845 7 l2845 0 -5 -52z"/>
<path d="M9756 7186 c-129 -54 -176 -143 -231 -434 -29 -155 -42 -203 -130
-497 -207 -689 -256 -1009 -178 -1172 34 -73 139 -83 251 -23 109 58 153 146
207 417 20 98 75 329 122 513 173 674 223 895 223 979 0 95 -20 157 -65 201
-47 46 -115 51 -199 16z"/>
<path d="M8486 6963 c-76 -17 -128 -56 -320 -243 -212 -206 -526 -551 -526
-578 0 -11 102 -163 169 -252 93 -124 167 -209 279 -323 182 -185 322 -277
432 -284 78 -6 117 17 153 87 24 46 28 64 24 111 -8 97 -54 162 -238 335 -140
131 -199 199 -244 275 l-37 64 63 54 c103 88 290 280 347 356 64 87 118 195
127 256 18 121 -75 178 -229 142z"/>
<path d="M10560 6951 c-85 -45 -98 -149 -35 -278 34 -70 57 -97 210 -248 94
-93 197 -190 228 -215 31 -25 56 -50 57 -55 0 -6 -17 -40 -37 -75 -28 -47 -92
-119 -234 -260 -229 -227 -254 -266 -247 -372 6 -94 32 -139 93 -161 61 -23
151 -19 210 8 24 11 86 66 155 138 63 66 197 201 296 301 200 200 309 335 298
370 -41 130 -479 623 -711 798 -88 67 -211 88 -283 49z"/>
</g>
</svg>
